<?xml version="1.0" encoding="UTF-8"?>
<svg width="42px" height="36px" viewBox="0 0 42 36" version="1.1" xmlns="http://www.w3.org/2000/svg" xmlns:xlink="http://www.w3.org/1999/xlink">
    <title>icon_youtube</title>
    <g id="website" stroke="none" stroke-width="1" fill="none" fill-rule="evenodd">
        <g id="matli_web_02" transform="translate(-1248.000000, -2771.000000)">
            <g id="footer" transform="translate(0.000000, 2700.000000)">
                <g id="social_icons" transform="translate(1136.000000, 68.000000)">
                    <g id="youtube" transform="translate(112.000000, 0.000000)">
                        <rect id="ViewBox" x="0" y="0" width="42" height="42"></rect>
                        <path d="M21,7 C22.49625,7 24.031,7.0385 25.5185,7.1015 L27.2755,7.1855 L28.95725,7.28525 L30.53225,7.392 L31.97075,7.504 C35.1939235,7.7492685 37.7738712,10.2767903 38.08525,13.49425 L38.15525,14.238 L38.2865,15.8305 C38.409,17.48075 38.5,19.27975 38.5,21 C38.5,22.72025 38.409,24.51925 38.2865,26.1695 L38.15525,27.762 L38.08525,28.50575 C37.7737467,31.7238174 35.1928537,34.2515418 31.969,34.496 L30.534,34.60625 L28.959,34.71475 L27.2755,34.8145 L25.5185,34.8985 C24.0132015,34.9637033 22.506708,34.9975439 21,35 C19.493292,34.9975439 17.9867985,34.9637033 16.4815,34.8985 L14.7245,34.8145 L13.04275,34.71475 L11.46775,34.60625 L10.02925,34.496 C6.80607652,34.2507315 4.2261288,31.7232097 3.91475,28.50575 L3.84475,27.762 L3.7135,26.1695 C3.58020733,24.4494605 3.50899437,22.725173 3.5,21 C3.5,19.27975 3.591,17.48075 3.7135,15.8305 L3.84475,14.238 L3.91475,13.49425 C4.22600408,10.2773978 6.80500676,7.75007852 10.0275,7.504 L11.46425,7.392 L13.03925,7.28525 L14.72275,7.1855 L16.47975,7.1015 C17.9856314,7.03627245 19.4927085,7.00243177 21,7 M17.4999998,16.75625 L17.4999998,25.24375 C17.4999998,26.05225 18.375,26.55625 19.075,26.15375 L26.425,21.91 C26.7505292,21.7226125 26.951168,21.3756106 26.951168,21 C26.951168,20.6243894 26.7505292,20.2773875 26.425,20.09 L19.075,15.848 C18.7500247,15.6603753 18.3496235,15.6604394 18.0247083,15.8481682 C17.6997931,16.035897 17.4997593,16.3827509 17.4999998,16.758 L17.4999998,16.75625 Z" id="Shape" fill="#FFDB9C" fill-rule="nonzero"></path>
                    </g>
                </g>
            </g>
        </g>
    </g>
</svg>