<?xml version="1.0" encoding="UTF-8"?>
<svg width="36px" height="36px" viewBox="0 0 36 36" version="1.1" xmlns="http://www.w3.org/2000/svg" xmlns:xlink="http://www.w3.org/1999/xlink">
    <title>icon_insta</title>
    <g id="website" stroke="none" stroke-width="1" fill="none" fill-rule="evenodd">
        <g id="matli_web_02" transform="translate(-1136.000000, -2771.000000)">
            <g id="footer" transform="translate(0.000000, 2700.000000)">
                <g id="social_icons" transform="translate(1136.000000, 68.000000)">
                    <g id="insta" transform="translate(0.000000, 3.000000)">
                        <rect id="ViewBox" x="0" y="0" width="36" height="36"></rect>
                        <path d="M19.542,3 C21.2295,3.0045 22.086,3.0135 22.8255,3.0345 L23.1165,3.045 C23.4525,3.057 23.784,3.072 24.1845,3.09 C25.7805,3.165 26.8695,3.417 27.825,3.7875 C28.815,4.1685 29.649,4.6845 30.483,5.517 C31.2460404,6.26659867 31.8362762,7.17370859 32.2125,8.175 C32.583,9.1305 32.835,10.2195 32.91,11.817 C32.928,12.216 32.943,12.5475 32.955,12.885 L32.964,13.176 C32.9865,13.914 32.9955,14.7705 32.9985,16.458 L33,17.577 L33,19.542 C33.0036519,20.6361068 32.9921508,21.7302117 32.9655,22.824 L32.9565,23.115 C32.9445,23.4525 32.9295,23.784 32.9115,24.183 C32.8365,25.7805 32.5815,26.868 32.2125,27.825 C31.8362762,28.8262914 31.2460404,29.7334013 30.483,30.483 C29.7334013,31.2460404 28.8262914,31.8362762 27.825,32.2125 C26.8695,32.583 25.7805,32.835 24.1845,32.91 L23.1165,32.955 L22.8255,32.964 C22.086,32.985 21.2295,32.9955 19.542,32.9985 L18.423,33 L16.4595,33 C15.3648925,33.0038603 14.2702847,32.9923591 13.176,32.9655 L12.885,32.9565 C12.5289152,32.9430137 12.1729095,32.9275135 11.817,32.91 C10.221,32.835 9.132,32.583 8.175,32.2125 C7.17424516,31.836083 6.26766428,31.2458584 5.5185,30.483 C4.75491804,29.7335493 4.16416312,28.8264283 3.7875,27.825 C3.417,26.8695 3.165,25.7805 3.09,24.183 L3.045,23.115 L3.0375,22.824 C3.00984906,21.7302256 2.99734786,20.6361207 3,19.542 L3,16.458 C2.99584816,15.3639001 3.00684921,14.2697952 3.033,13.176 L3.0435,12.885 C3.0555,12.5475 3.0705,12.216 3.0885,11.817 C3.1635,10.2195 3.4155,9.132 3.786,8.175 C4.16354159,7.1732978 4.75533493,6.26615438 5.52,5.517 C6.26872987,4.75432357 7.17478173,4.16411012 8.175,3.7875 C9.132,3.417 10.2195,3.165 11.817,3.09 C12.216,3.072 12.549,3.057 12.885,3.045 L13.176,3.036 C14.2697883,3.00934917 15.3638932,2.99784806 16.458,3.0015 L19.542,3 Z M18,10.5 C13.8578644,10.5 10.5,13.8578644 10.5,18 C10.5,22.1421356 13.8578644,25.5 18,25.5 C22.1421356,25.5 25.5,22.1421356 25.5,18 C25.5,13.8578644 22.1421356,10.5 18,10.5 M18,13.4999999 C20.4852814,13.4995858 22.5003358,15.5139686 22.5007501,17.99925 C22.5011642,20.4845314 20.4867814,22.4995858 18.0015,22.4999999 C15.5162186,22.4999999 13.5015,20.4852814 13.5015,17.9999999 C13.5015,15.5147186 15.5162186,13.4999999 18.0015,13.4999999 M25.8765,8.25 C24.8409661,8.25 24.0015,9.08946609 24.0015,10.125 C24.0015,11.1605339 24.8409661,12 25.8765,12 C26.9120339,12 27.7515,11.1605339 27.7515,10.125 C27.7515,9.08946609 26.9120339,8.25 25.8765,8.25" id="Shape" fill="#FFDB9C" fill-rule="nonzero"></path>
                    </g>
                </g>
            </g>
        </g>
    </g>
</svg>