<?xml version="1.0" encoding="UTF-8"?>
<svg width="172px" height="60px" viewBox="0 0 172 60" version="1.1" xmlns="http://www.w3.org/2000/svg" xmlns:xlink="http://www.w3.org/1999/xlink">
    <title>maatli_logo_sml</title>
    <defs>
        <path d="M44.0049444,14.6477132 C48.29007,14.6477132 51.6996292,15.9456119 54.2336218,18.5414091 C56.7676143,21.1372064 58.0346106,24.7424804 58.0346106,29.3572311 L58.0346106,49.5055624 L47.5278121,49.5055624 L47.5278121,30.7787392 C47.5278121,28.5537701 46.9406675,26.8335393 45.7663782,25.618047 C44.592089,24.4025546 42.9748661,23.7948084 40.9147095,23.7948084 C38.8545529,23.7948084 37.23733,24.4025546 36.0630408,25.618047 C34.8887515,26.8335393 34.3016069,28.5537701 34.3016069,30.7787392 L34.3016069,49.5055624 L23.7948084,49.5055624 L23.7948084,30.7787392 C23.7948084,28.5537701 23.2076638,26.8335393 22.0333745,25.618047 C20.8590853,24.4025546 19.2418624,23.7948084 17.1817058,23.7948084 C15.1215492,23.7948084 13.5043263,24.4025546 12.3300371,25.618047 C11.1557478,26.8335393 10.5686032,28.5537701 10.5686032,30.7787392 L10.5686032,49.5055624 L0,49.5055624 L0,15.0185414 L10.5686032,15.0185414 L10.5686032,19.3448702 C11.6398846,17.9027606 13.0407911,16.7593737 14.7713226,15.9147095 C16.5018541,15.0700453 18.4590029,14.6477132 20.6427689,14.6477132 C23.2385661,14.6477132 25.5562423,15.2039555 27.5957973,16.31644 C29.6353523,17.4289246 31.2319736,19.0152452 32.3856613,21.0754017 C33.5805521,19.1800577 35.2080758,17.6349403 37.2682324,16.4400494 C39.328389,15.2451586 41.5739596,14.6477132 44.0049444,14.6477132 Z M63.3498146,32.2002472 C63.3498146,28.6567779 64.0193655,25.5459415 65.3584672,22.8677379 C66.697569,20.1895344 68.5208076,18.1293778 70.8281829,16.6872682 C73.1355583,15.2451586 75.710754,14.5241038 78.5537701,14.5241038 C80.9847548,14.5241038 83.1170169,15.0185414 84.9505562,16.0074166 C86.7840956,16.9962917 88.1953028,18.2941904 89.184178,19.9011125 L89.184178,15.0185414 L99.7527812,15.0185414 L99.7527812,49.5055624 L89.184178,49.5055624 L89.184178,44.6229913 C88.1540997,46.2299135 86.7222909,47.5278121 84.8887515,48.5166873 C83.0552122,49.5055624 80.9229501,50 78.4919654,50 C75.6901525,50 73.1355583,49.2686444 70.8281829,47.8059333 C68.5208076,46.3432221 66.697569,44.2624639 65.3584672,41.5636588 C64.0193655,38.8648537 63.3498146,35.7437165 63.3498146,32.2002472 Z M89.184178,32.2620519 C89.184178,29.6250515 88.4528224,27.5442934 86.9901112,26.0197775 C85.5274001,24.4952616 83.7453646,23.7330037 81.6440049,23.7330037 C79.5426452,23.7330037 77.7606098,24.4849609 76.2978986,25.9888752 C74.8351875,27.4927895 74.1038319,29.5632468 74.1038319,32.2002472 C74.1038319,34.8372476 74.8351875,36.9283066 76.2978986,38.473424 C77.7606098,40.0185414 79.5426452,40.7911001 81.6440049,40.7911001 C83.7453646,40.7911001 85.5274001,40.0288422 86.9901112,38.5043263 C88.4528224,36.9798105 89.184178,34.8990523 89.184178,32.2620519 Z M98.6128279,3.39925834 L96.8960308,10.6922126 L70.4573548,10.6922126 L72.1741519,3.39925834 L98.6128279,3.39925834 Z M126.637824,40.5438813 L126.637824,49.5055624 L121.260816,49.5055624 C117.428925,49.5055624 114.441698,48.5681912 112.299135,46.6934487 C110.156572,44.8187062 109.08529,41.7593737 109.08529,37.5154512 L109.08529,23.7948084 L104.882571,23.7948084 L104.882571,15.0185414 L109.08529,15.0185414 L109.08529,6.6131026 L119.653894,6.6131026 L119.653894,15.0185414 L126.57602,15.0185414 L126.57602,23.7948084 L119.653894,23.7948084 L119.653894,37.6390606 C119.653894,38.6691389 119.901112,39.4107952 120.39555,39.8640297 C120.889988,40.3172641 121.71405,40.5438813 122.867738,40.5438813 L126.637824,40.5438813 Z M143.077874,3.77008653 L143.077874,49.5055624 L132.509271,49.5055624 L132.509271,3.77008653 L143.077874,3.77008653 Z M156.05686,11.433869 C154.202719,11.433869 152.688504,10.8879275 151.514215,9.7960445 C150.339926,8.70416152 149.752781,7.35475896 149.752781,5.74783684 C149.752781,4.09971158 150.339926,2.72970746 151.514215,1.63782447 C152.688504,0.545941492 154.202719,0 156.05686,0 C157.869798,0 159.363412,0.545941492 160.537701,1.63782447 C161.71199,2.72970746 162.299135,4.09971158 162.299135,5.74783684 C162.299135,7.35475896 161.71199,8.70416152 160.537701,9.7960445 C159.363412,10.8879275 157.869798,11.433869 156.05686,11.433869 Z M161.31026,15.0185414 L161.31026,49.5055624 L150.741656,49.5055624 L150.741656,15.0185414 L161.31026,15.0185414 Z" id="path-1"></path>
    </defs>
    <g id="website" stroke="none" stroke-width="1" fill="none" fill-rule="evenodd">
        <g id="matli_web_02" transform="translate(-145.000000, -2763.000000)">
            <g id="footer" transform="translate(0.000000, 2700.000000)">
                <g id="mātli~sml" transform="translate(150.000000, 68.000000)">
                    <mask id="mask-2" fill="white">
                        <use xlink:href="#path-1"></use>
                    </mask>
                    <use id="Shape" fill="#FFDB9C" fill-rule="nonzero" xlink:href="#path-1"></use>
                </g>
            </g>
        </g>
    </g>
</svg>