<?xml version="1.0" encoding="UTF-8"?>
<svg width="500px" height="168px" viewBox="0 0 500 168" version="1.1" xmlns="http://www.w3.org/2000/svg" xmlns:xlink="http://www.w3.org/1999/xlink">
    <title>maatli_logo</title>
    <defs>
        <path d="M130.144707,43.3206398 C142.817974,43.3206398 152.901752,47.1591775 160.39604,54.8362529 C167.890327,62.5133283 171.637471,73.175933 171.637471,86.824067 L171.637471,146.412795 L140.563595,146.412795 L140.563595,91.0281797 C140.563595,84.4478294 138.827113,79.3602437 135.354151,75.7654227 C131.881188,72.1706017 127.098248,70.3731912 121.005331,70.3731912 C114.912414,70.3731912 110.129474,72.1706017 106.656512,75.7654227 C103.183549,79.3602437 101.447068,84.4478294 101.447068,91.0281797 L101.447068,146.412795 L70.3731912,146.412795 L70.3731912,91.0281797 C70.3731912,84.4478294 68.6367098,79.3602437 65.1637471,75.7654227 C61.6907845,72.1706017 56.9078446,70.3731912 50.8149276,70.3731912 C44.7220107,70.3731912 39.9390708,72.1706017 36.4661081,75.7654227 C32.9931455,79.3602437 31.2566641,84.4478294 31.2566641,91.0281797 L31.2566641,146.412795 L0,146.412795 L0,44.4173648 L31.2566641,44.4173648 L31.2566641,57.2124905 C34.424981,52.9474486 38.5681645,49.5658797 43.6862148,47.0677837 C48.804265,44.5696877 54.5925362,43.3206398 61.0510282,43.3206398 C68.7281036,43.3206398 75.5826352,44.9657273 81.614623,48.2559025 C87.6466108,51.5460777 92.3686215,56.2376238 95.780655,62.3305407 C99.3145468,56.7250571 104.127951,52.1553694 110.220868,48.6214775 C116.313785,45.0875857 122.955065,43.3206398 130.144707,43.3206398 Z M187.357197,95.2322925 C187.357197,84.7524752 189.337395,75.5521706 193.297791,67.6313785 C197.258187,59.7105864 202.650419,53.6176695 209.474486,49.3526276 C216.298553,45.0875857 223.914699,42.9550647 232.322925,42.9550647 C239.512567,42.9550647 245.818736,44.4173648 251.241432,47.341965 C256.664128,50.2665651 260.837776,54.1051028 263.762376,58.8575781 L263.762376,44.4173648 L295.01904,44.4173648 L295.01904,146.412795 L263.762376,146.412795 L263.762376,131.972582 C260.715918,136.725057 256.48134,140.563595 251.058644,143.488195 C245.635948,146.412795 239.329779,147.875095 232.140137,147.875095 C223.85377,147.875095 216.298553,145.71211 209.474486,141.386139 C202.650419,137.060168 197.258187,130.906321 193.297791,122.9246 C189.337395,114.942879 187.357197,105.71211 187.357197,95.2322925 Z M263.762376,95.41508 C263.762376,87.6161462 261.599391,81.4623001 257.27342,76.9535415 C252.947449,72.4447829 247.677075,70.1904037 241.4623,70.1904037 C235.247525,70.1904037 229.977152,72.4143184 225.651181,76.8621478 C221.325209,81.3099772 219.162224,87.4333587 219.162224,95.2322925 C219.162224,103.031226 221.325209,109.215537 225.651181,113.785225 C229.977152,118.354912 235.247525,120.639756 241.4623,120.639756 C247.677075,120.639756 252.947449,118.385377 257.27342,113.876618 C261.599391,109.36786 263.762376,103.214014 263.762376,95.41508 Z M291.647626,10.053313 L286.570195,31.6222391 L208.377761,31.6222391 L213.455192,10.053313 L291.647626,10.053313 Z M374.531607,119.908606 L374.531607,146.412795 L358.629094,146.412795 C347.296268,146.412795 338.461538,143.640518 332.124905,138.095963 C325.788271,132.551409 322.619954,123.503427 322.619954,110.952018 L322.619954,70.3731912 L310.190404,70.3731912 L310.190404,44.4173648 L322.619954,44.4173648 L322.619954,19.5582635 L353.876618,19.5582635 L353.876618,44.4173648 L374.348819,44.4173648 L374.348819,70.3731912 L353.876618,70.3731912 L353.876618,111.317593 C353.876618,114.364052 354.607768,116.557502 356.070069,117.897944 C357.532369,119.238385 359.969535,119.908606 363.381569,119.908606 L374.531607,119.908606 Z M423.153085,11.1500381 L423.153085,146.412795 L391.89642,146.412795 L391.89642,11.1500381 L423.153085,11.1500381 Z M461.538462,33.8156893 C456.054836,33.8156893 451.576542,32.2010663 448.10358,28.9718203 C444.630617,25.7425743 442.894136,21.7517136 442.894136,16.9992384 C442.894136,12.1249048 444.630617,8.073115 448.10358,4.843869 C451.576542,1.614623 456.054836,0 461.538462,0 C466.900228,0 471.317593,1.614623 474.790556,4.843869 C478.263519,8.073115 480,12.1249048 480,16.9992384 C480,21.7517136 478.263519,25.7425743 474.790556,28.9718203 C471.317593,32.2010663 466.900228,33.8156893 461.538462,33.8156893 Z M477.0754,44.4173648 L477.0754,146.412795 L445.818736,146.412795 L445.818736,44.4173648 L477.0754,44.4173648 Z" id="path-1"></path>
    </defs>
    <g id="website" stroke="none" stroke-width="1" fill="none" fill-rule="evenodd">
        <g id="matli_web_02" transform="translate(-470.000000, -240.000000)">
            <g id="mātli~big" transform="translate(480.000000, 250.000000)">
                <mask id="mask-2" fill="white">
                    <use xlink:href="#path-1"></use>
                </mask>
                <use id="Shape" fill="#FFDB9C" fill-rule="nonzero" xlink:href="#path-1"></use>
            </g>
        </g>
    </g>
</svg>